# xmcd
#
# Track frame offsets:
#	150
#	25745
#	44840
#	63055
#	93937
#	119457
#	142460
#	164770
#	181145
#	199600
#	223302
#	251470
#	280302
#	294710
#
# Disc length: 4262 seconds
#
# Revision: 8
# Processed by: cddbd v1.5.2PL0 Copyright (c) Steve Scherf et al.
# Submitted via: EasyCDDAExtractor 2011.0.0.0
#
DISCID=e110a40e
DTITLE=Neville Brothers - Live On Planet Earth
DYEAR=1994
DGENRE=Soul
TTITLE0=Shake Your Tambourine
TTITLE1=Voodoo
TTITLE2=The Dealer
TTITLE3=Junk Man
TTITLE4=Brother Jake
TTITLE5=Sister Rosa
TTITLE6=Yellow Moon
TTITLE7=Her African Eyes
TTITLE8=Sands Of Time
TTITLE9=Congo Square
TTITLE10=Love The One You're With - You Can't Always Get What You Want
TTITLE11=Let My People Go - Get Up Stand Up
TTITLE12=Amazing Grace
TTITLE13=One Love - People Get Ready - Sermon
EXTD=
EXTT0=
EXTT1=
EXTT2=
EXTT3=
EXTT4=
EXTT5=
EXTT6=
EXTT7=
EXTT8=
EXTT9=
EXTT10=
EXTT11=
EXTT12=
EXTT13=
PLAYORDER=
